<?xml version="1.0" encoding="UTF-8"?>
<svg id="Camada_2" data-name="Camada 2" xmlns="http://www.w3.org/2000/svg" xmlns:xlink="http://www.w3.org/1999/xlink" viewBox="0 0 12 11">
  <defs>
    <style>
      .cls-1 {
        clip-path: url(#clippath);
      }

      .cls-2 {
        clip-rule: evenodd;
        fill: none;
      }

      .cls-3 {
        fill: #2c2e3d;
      }
    </style>
    <clipPath id="clippath">
      <path class="cls-2" d="M5.36,.38l-1.46,2.84-3.28,.46c-.59,.08-.82,.78-.4,1.17l2.37,2.21-.56,3.13c-.1,.56,.52,.99,1.04,.72l2.93-1.48,2.93,1.48c.52,.26,1.14-.16,1.04-.72l-.56-3.13,2.37-2.21c.43-.4,.19-1.09-.4-1.17l-3.28-.46L6.64,.38c-.26-.51-1.02-.51-1.29,0Z"/>
    </clipPath>
  </defs>
  <g id="Camada_1-2" data-name="Camada 1">
    <g class="cls-1">
      <path class="cls-3" d="M7.53-.08c-.63-1.22-2.42-1.24-3.06,0l1.78,.92c-.06,.12-.18,.16-.25,.16-.07,0-.18-.04-.24-.16L7.53-.08Zm1.47,2.85L7.53-.08l-1.78,.92,1.46,2.84,1.78-.92Zm2.53-.07l-3.28-.46-.28,1.98,3.28,.46,.28-1.98Zm.94,2.89c1.09-1.01,.42-2.71-.94-2.89l-.28,1.98c-.1-.01-.19-.09-.23-.2-.02-.05-.02-.12,0-.18,.02-.07,.05-.13,.09-.16l1.36,1.46Zm-2.37,2.21l2.37-2.21-1.36-1.46-2.37,2.21,1.36,1.46Zm.86,2.22l-.56-3.13-1.97,.35,.56,3.13,1.97-.35Zm-2.47,1.79c1.16,.58,2.74-.31,2.47-1.79l-1.97,.35c-.01-.06,0-.14,.03-.2,.03-.06,.07-.1,.1-.13,.07-.05,.17-.06,.26-.02l-.9,1.79Zm-2.93-1.48l2.93,1.48,.9-1.79-2.93-1.48-.9,1.79Zm-2.03,1.48l2.93-1.48-.9-1.79-2.93,1.48,.9,1.79Zm-2.47-1.79c-.26,1.48,1.31,2.38,2.48,1.79l-.91-1.78c.09-.05,.2-.03,.27,.02,.04,.02,.07,.06,.1,.13,.03,.07,.04,.14,.03,.2l-1.97-.35Zm.56-3.13l-.56,3.13,1.97,.35,.56-3.13-1.97-.35ZM-.46,5.59L1.91,7.8l1.36-1.46L.9,4.13-.46,5.59ZM.48,2.69c-1.36,.19-2.03,1.88-.94,2.89l1.36-1.46s.07,.09,.09,.16c.02,.07,.01,.13,0,.18-.04,.11-.13,.19-.23,.2l-.28-1.98Zm3.28-.46L.48,2.69l.28,1.98,3.28-.46-.28-1.98ZM4.47-.08l-1.46,2.84,1.78,.92L6.25,.84,4.47-.08Zm2.18,.46l.89-.46h0s-.89,.46-.89,.46Zm1.46,2.84l-.89,.46,.24,.46,.51,.07,.14-.99Zm3.28,.46l-.14,.99h0s.14-.99,.14-.99Zm.4,1.17l-.68-.73h0s.68,.73,.68,.73Zm-2.37,2.21l-.68-.73-.4,.37,.1,.54,.98-.18Zm.56,3.13l.98-.18h0s-.98,.18-.98,.18Zm-1.04,.72l.45-.89h0s-.45,.89-.45,.89Zm-2.93-1.48l.45-.89-.45-.23-.45,.23,.45,.89Zm-2.93,1.48l-.45-.89h0s.45,.89,.45,.89Zm-1.04-.72l-.98-.18h0s.98,.18,.98,.18Zm.56-3.13l.98,.18,.1-.54-.4-.37-.68,.73ZM.22,4.86l.68-.73h0s-.68,.73-.68,.73Zm.4-1.17l.14,.99h0s-.14-.99-.14-.99Zm3.28-.46l.14,.99,.51-.07,.24-.46-.89-.46ZM5.36,.38l-.89-.46h0s.89,.46,.89,.46Z"/>
    </g>
  </g>
</svg>