<?xml version="1.0" encoding="UTF-8"?>
<svg id="Camada_2" data-name="Camada 2" xmlns="http://www.w3.org/2000/svg" viewBox="0 0 26 26">
  <defs>
    <style>
      .cls-1 {
        fill: #34364b;
        fill-rule: evenodd;
      }
    </style>
  </defs>
  <g id="Camada_1-2" data-name="Camada 1">
    <path class="cls-1" d="M17.28,18.95c-1.82,1.46-4.13,2.33-6.64,2.33C4.76,21.27,0,16.51,0,10.64S4.76,0,10.64,0s10.64,4.76,10.64,10.64c0,2.51-.87,4.82-2.33,6.64l6.71,6.71c.46,.46,.46,1.21,0,1.67-.46,.46-1.21,.46-1.67,0l-6.71-6.71Zm1.63-8.31c0,4.57-3.7,8.27-8.27,8.27S2.36,15.21,2.36,10.64,6.07,2.36,10.64,2.36s8.27,3.7,8.27,8.27Z"/>
  </g>
</svg>