<?xml version="1.0" encoding="UTF-8"?>
<svg id="Camada_2" data-name="Camada 2" xmlns="http://www.w3.org/2000/svg" viewBox="0 0 32 32">
  <defs>
    <style>
      .cls-1 {
        fill: #f6f6f6;
      }
    </style>
  </defs>
  <g id="Camada_1-2" data-name="Camada 1">
    <path class="cls-1" d="M16,0c-.71,0-1.39,.28-1.89,.78-.5,.5-.78,1.18-.78,1.89V13.33H2.67c-.71,0-1.39,.28-1.89,.78-.5,.5-.78,1.18-.78,1.89s.28,1.39,.78,1.89c.5,.5,1.18,.78,1.89,.78H13.33v10.67c0,.71,.28,1.39,.78,1.89,.5,.5,1.18,.78,1.89,.78s1.39-.28,1.89-.78c.5-.5,.78-1.18,.78-1.89v-10.67h10.67c.71,0,1.39-.28,1.89-.78,.5-.5,.78-1.18,.78-1.89s-.28-1.39-.78-1.89c-.5-.5-1.18-.78-1.89-.78h-10.67V2.67c0-.71-.28-1.39-.78-1.89-.5-.5-1.18-.78-1.89-.78Z"/>
  </g>
</svg>