<?xml version="1.0" encoding="UTF-8"?>
<svg id="Camada_2" data-name="Camada 2" xmlns="http://www.w3.org/2000/svg" xmlns:xlink="http://www.w3.org/1999/xlink" viewBox="0 0 32 30.93">
  <defs>
    <style>
      .cls-1 {
        fill: #f6f6f6;
      }

      .cls-2 {
        clip-path: url(#clippath);
      }

      .cls-3 {
        clip-rule: evenodd;
        fill: none;
      }
    </style>
    <clipPath id="clippath">
      <path class="cls-3" d="M14.28,1.08l-3.91,8L1.64,10.36c-1.57,.23-2.2,2.18-1.06,3.3l6.32,6.22-1.5,8.79c-.27,1.59,1.39,2.78,2.78,2.04l7.82-4.15,7.82,4.15c1.39,.74,3.04-.45,2.78-2.04l-1.5-8.79,6.32-6.22c1.14-1.12,.51-3.07-1.06-3.3l-8.74-1.29-3.91-8c-.7-1.43-2.73-1.44-3.43,0Z"/>
    </clipPath>
  </defs>
  <g id="Camada_1-2" data-name="Camada 1">
    <g class="cls-2">
      <path class="cls-1" d="M20.41-.25c-1.78-3.63-7-3.71-8.82,0l5.39,2.64c-.41,.83-1.57,.78-1.95,0L20.41-.25Zm3.91,8L20.41-.24l-5.39,2.63,3.91,8,5.39-2.63Zm6.48-.36l-8.74-1.29-.87,5.94,8.74,1.29,.87-5.94Zm2.72,8.4c2.87-2.83,1.34-7.81-2.73-8.41l-.87,5.94c-.93-.14-1.21-1.22-.61-1.81l4.21,4.28Zm-6.32,6.22l6.32-6.22-4.21-4.28-6.32,6.22,4.21,4.28Zm2.35,6.15l-1.5-8.79-5.91,1.01,1.5,8.79,5.91-1.01Zm-7.14,5.19c3.61,1.92,7.82-1.17,7.14-5.19l-5.92,1c-.14-.84,.76-1.56,1.59-1.12l-2.81,5.3Zm-7.82-4.15l7.82,4.15,2.81-5.3-7.82-4.15-2.81,5.3Zm-5,4.15l7.82-4.15-2.81-5.3-7.82,4.15,2.81,5.3Zm-7.14-5.19c-.68,4,3.52,7.12,7.15,5.18l-2.83-5.29c.86-.46,1.74,.29,1.6,1.11l-5.92-1Zm1.5-8.79l-1.5,8.79,5.91,1.01,1.5-8.79-5.91-1.01ZM-1.52,15.8l6.32,6.22,4.21-4.28L2.68,11.52-1.52,15.8ZM1.2,7.39c-4.06,.59-5.6,5.58-2.73,8.41L2.68,11.52c.6,.59,.32,1.67-.61,1.81l-.87-5.94Zm8.74-1.29L1.2,7.39l.87,5.94,8.74-1.29-.87-5.94ZM11.59-.24l-3.91,8,5.39,2.63,3.91-8L11.59-.24Zm6.13,1.32L20.41-.24h0s-2.69,1.32-2.69,1.32Zm3.91,8l-2.7,1.32,.69,1.42,1.56,.23,.44-2.97Zm8.74,1.29l-.44,2.97h0s.43-2.97,.43-2.97Zm1.06,3.3l-2.1-2.14h0s2.1,2.14,2.1,2.14Zm-6.32,6.22l-2.1-2.14-1.12,1.1,.26,1.54,2.96-.5Zm1.5,8.79l2.96-.5h0s-2.96,.5-2.96,.5Zm-2.78,2.04l1.41-2.65h0s-1.41,2.65-1.41,2.65Zm-7.82-4.15l1.41-2.65-1.41-.75-1.41,.75,1.41,2.65Zm-7.82,4.15l-1.41-2.65h0s1.42,2.65,1.42,2.65Zm-2.78-2.04l-2.96-.5h0s2.96,.5,2.96,.5Zm1.5-8.79l2.96,.5,.26-1.54-1.12-1.1-2.1,2.14ZM.58,13.66l2.1-2.14h0S.58,13.66,.58,13.66Zm1.06-3.3l.43,2.97h0s-.44-2.97-.44-2.97Zm8.74-1.29l.44,2.97,1.56-.23,.69-1.42-2.7-1.32ZM14.28,1.08L11.59-.24h0s2.7,1.32,2.7,1.32Z"/>
    </g>
  </g>
</svg>